<?xml version="1.0" encoding="UTF-8" standalone="no"?>
<!-- Created with Inkscape (http://www.inkscape.org/) -->

<svg
   width="79.747696mm"
   height="50.713367mm"
   viewBox="0 0 79.747696 50.713367"
   version="1.1"
   id="svg5"
   xmlns="http://www.w3.org/2000/svg"
   xmlns:svg="http://www.w3.org/2000/svg">
  <defs
     id="defs2" />
  <g
     id="layer5"
     transform="translate(-61.203263,-23.193117)" />
  <g
     id="layer2"
     transform="translate(-61.203263,-23.193117)">
    <path
       id="path5244"
       clip-path="none"
       style="fill:none;fill-opacity:1;stroke:#222222;stroke-width:3;stroke-miterlimit:4;stroke-dasharray:none;stroke-opacity:1"
       d="M 102.77859,24.966124 A 27.776611,27.776611 0 0 0 89.793832,48.453651 27.776611,27.776611 0 0 0 102.76102,71.930275 27.776611,27.776611 0 0 0 115.72881,48.453651 27.776611,27.776611 0 0 0 102.77859,24.966124 Z" />
    <path
       style="display:inline;fill:none;fill-rule:evenodd;stroke:#272727;stroke-width:2;stroke-linecap:butt;stroke-linejoin:miter;stroke-miterlimit:4;stroke-dasharray:none;stroke-opacity:1"
       d="m 109.74468,50.824172 15.97598,8.859671"
       id="path4182" />
    <path
       style="display:inline;fill:none;fill-opacity:1;fill-rule:evenodd;stroke:#272727;stroke-width:2;stroke-linecap:butt;stroke-linejoin:miter;stroke-miterlimit:4;stroke-dasharray:none;stroke-opacity:1"
       d="m 78.000993,42.936484 17.346262,2.904259"
       id="path2998" />
  </g>
  <g
     id="layer4"
     transform="translate(-61.203263,-23.193117)" />
  <g
     id="layer3"
     transform="translate(-61.203263,-23.193117)" />
  <g
     id="layer1"
     transform="translate(-61.203263,-23.193117)">
    <path
       id="path1397-7"
       style="fill:#000000;fill-opacity:1;stroke:#ad0c04;stroke-width:3.5;stroke-miterlimit:4;stroke-dasharray:none;stroke-opacity:1"
       d="m 102.70543,41.175588 a 7.5138931,7.5138892 0 0 0 -7.513819,7.513818 7.5138931,7.5138892 0 0 0 7.513819,7.513818 7.5138931,7.5138892 0 0 0 7.51382,-7.513818 7.5138931,7.5138892 0 0 0 -7.51382,-7.513818 z" />
    <path
       id="path1397-7-6"
       style="fill:none;fill-opacity:1;stroke:#ad0c04;stroke-width:3.5;stroke-miterlimit:4;stroke-dasharray:none;stroke-opacity:1"
       d="m 70.445459,35.731975 a 7.4922648,7.4922636 0 0 0 -7.492196,7.492193 7.4922648,7.4922636 0 0 0 7.492196,7.492193 7.4922648,7.4922636 0 0 0 7.492194,-7.492193 7.4922648,7.4922636 0 0 0 -7.492194,-7.492193 z" />
    <path
       id="path1397-7-6-9"
       style="fill:none;fill-opacity:1;stroke:#ad0c04;stroke-width:3.5;stroke-miterlimit:4;stroke-dasharray:none;stroke-opacity:1"
       d="m 131.50731,56.769186 a 7.6937253,7.6937227 0 0 0 -7.69365,7.69365 7.6937253,7.6937227 0 0 0 7.69365,7.69365 7.6937253,7.6937227 0 0 0 7.69365,-7.69365 7.6937253,7.6937227 0 0 0 -7.69365,-7.69365 z" />
    <circle
       style="fill:#ffffff;fill-opacity:1;stroke:none;stroke-width:2.65967;stroke-miterlimit:4;stroke-dasharray:none;stroke-opacity:1"
       id="path6819"
       cx="104.66147"
       cy="46.205029"
       r="3.4369006" />
  </g>
</svg>
